<svg xmlns="http://www.w3.org/2000/svg" width="106" height="92" viewBox="0 0 106 92" fill="none">
  <circle cx="102" cy="36" r="2" fill="#BDBDBD"/>
  <circle cx="19" cy="25" r="3" fill="url(#paint0_linear_171_3829)"/>
  <circle cx="5" cy="78" r="5" fill="url(#paint1_linear_171_3829)"/>
  <circle cx="102" cy="88" r="4" fill="url(#paint2_linear_171_3829)"/>
  <mask id="path-5-inside-1_171_3829" fill="white">
    <path fill-rule="evenodd" clip-rule="evenodd" d="M82.5477 74.1402C69.5618 69.801 60.2018 57.5417 60.2018 43.0963C60.2018 37.7444 61.4866 32.6925 63.7645 28.2324C60.5037 27.1428 57.0142 26.5526 53.3868 26.5526C35.314 26.5526 20.6631 41.2035 20.6631 59.2763C20.6631 77.3491 35.314 92 53.3868 92C66.1077 92 77.1332 84.7415 82.5477 74.1402Z"/>
  </mask>
  <path d="M82.5477 74.1402L83.9739 69.8722L88.934 71.5296L86.5553 76.187L82.5477 74.1402ZM63.7645 28.2324L65.1907 23.9643L70.1508 25.6218L67.7721 30.2792L63.7645 28.2324ZM64.7018 43.0963C64.7018 55.5483 72.7685 66.128 83.9739 69.8722L81.1216 78.4083C66.355 73.4741 55.7018 59.5351 55.7018 43.0963H64.7018ZM67.7721 30.2792C65.8103 34.1203 64.7018 38.4723 64.7018 43.0963H55.7018C55.7018 37.0165 57.1628 31.2648 59.757 26.1856L67.7721 30.2792ZM62.3384 32.5004C59.5314 31.5625 56.5232 31.0526 53.3868 31.0526V22.0526C57.5051 22.0526 61.4759 22.7231 65.1907 23.9643L62.3384 32.5004ZM53.3868 31.0526C37.7993 31.0526 25.1631 43.6888 25.1631 59.2763H16.1631C16.1631 38.7182 32.8287 22.0526 53.3868 22.0526V31.0526ZM25.1631 59.2763C25.1631 74.8638 37.7993 87.5 53.3868 87.5V96.5C32.8287 96.5 16.1631 79.8344 16.1631 59.2763H25.1631ZM53.3868 87.5C64.3519 87.5 73.8646 81.248 78.5402 72.0934L86.5553 76.187C80.4019 88.235 67.8634 96.5 53.3868 96.5V87.5Z" fill="url(#paint3_linear_171_3829)" mask="url(#path-5-inside-1_171_3829)"/>
  <path d="M79.0621 2.53451C79.3843 1.66389 80.6157 1.66389 80.9379 2.53451L84.432 11.9772C84.5333 12.2509 84.7491 12.4667 85.0228 12.568L94.4655 16.0621C95.3361 16.3843 95.3361 17.6157 94.4655 17.9379L85.0228 21.432C84.7491 21.5333 84.5333 21.7491 84.432 22.0228L80.9379 31.4655C80.6157 32.3361 79.3843 32.3361 79.0621 31.4655L75.568 22.0228C75.4667 21.7491 75.2509 21.5333 74.9772 21.432L65.5345 17.9379C64.6639 17.6157 64.6639 16.3843 65.5345 16.0621L74.9772 12.568C75.2509 12.4667 75.4667 12.2509 75.568 11.9772L79.0621 2.53451Z" fill="#FFD600"/>
  <path d="M89.4689 48.708L90.8023 52.3115C90.9542 52.722 91.278 53.0458 91.6885 53.1977L95.292 54.5311C95.7273 54.6922 95.7273 55.3078 95.292 55.4689L91.6885 56.8023C91.278 56.9542 90.9542 57.278 90.8023 57.6885L89.4689 61.292C89.3078 61.7273 88.6922 61.7273 88.5311 61.292L87.1977 57.6885C87.0458 57.278 86.722 56.9542 86.3115 56.8023L82.708 55.4689C82.2727 55.3078 82.2727 54.6922 82.708 54.5311L86.3115 53.1977C86.722 53.0458 87.0458 52.722 87.1977 52.3115L88.5311 48.708C88.6922 48.2727 89.3078 48.2727 89.4689 48.708Z" stroke="#FFD600"/>
  <defs>
    <linearGradient id="paint0_linear_171_3829" x1="19" y1="22" x2="19" y2="28" gradientUnits="userSpaceOnUse">
      <stop stop-color="#D2D2D2"/>
      <stop offset="1" stop-color="#646464"/>
    </linearGradient>
    <linearGradient id="paint1_linear_171_3829" x1="5" y1="73" x2="5" y2="83" gradientUnits="userSpaceOnUse">
      <stop stop-color="#D2D2D2"/>
      <stop offset="1" stop-color="#646464"/>
    </linearGradient>
    <linearGradient id="paint2_linear_171_3829" x1="102" y1="84" x2="102" y2="92" gradientUnits="userSpaceOnUse">
      <stop stop-color="#646464"/>
      <stop offset="1" stop-color="#939393"/>
    </linearGradient>
    <linearGradient id="paint3_linear_171_3829" x1="51.5395" y1="92" x2="51.5395" y2="26.5526" gradientUnits="userSpaceOnUse">
      <stop stop-color="#646464"/>
      <stop offset="1" stop-color="#D2D2D2"/>
    </linearGradient>
  </defs>
</svg>