<svg xmlns="http://www.w3.org/2000/svg" width="97" height="95" viewBox="0 0 97 95" fill="none">
  <path fill-rule="evenodd" clip-rule="evenodd" d="M53.7633 4.69157C53.7633 2.10062 51.6629 0.000244141 49.072 0.000244141C46.481 0.000244141 44.3806 2.10062 44.3806 4.69157C44.3806 7.28252 46.481 9.38289 49.072 9.38289C51.6629 9.38289 53.7633 7.28252 53.7633 4.69157ZM80.5712 47.5828C80.5712 64.9791 66.4687 79.0816 49.0723 79.0816C31.676 79.0816 17.5735 64.9791 17.5735 47.5828C17.5735 30.1864 31.676 16.0839 49.0723 16.0839C66.4687 16.0839 80.5712 30.1864 80.5712 47.5828ZM49.072 85.2238C51.6629 85.2238 53.7633 87.3242 53.7633 89.9151C53.7633 92.5061 51.6629 94.6064 49.072 94.6064C46.481 94.6064 44.3806 92.5061 44.3806 89.9151C44.3806 87.3242 46.481 85.2238 49.072 85.2238ZM91.9652 52.2742C94.5561 52.2742 96.6565 50.1739 96.6565 47.5829C96.6565 44.992 94.5561 42.8916 91.9652 42.8916C89.3742 42.8916 87.2739 44.992 87.2739 47.5829C87.2739 50.1739 89.3742 52.2742 91.9652 52.2742ZM10.3241 47.5829C10.3241 50.1739 8.22368 52.2742 5.63273 52.2742C3.04178 52.2742 0.941406 50.1739 0.941406 47.5829C0.941406 44.992 3.04178 42.8916 5.63273 42.8916C8.22368 42.8916 10.3241 44.992 10.3241 47.5829ZM76.0845 81.229C77.9165 83.0611 80.8869 83.0611 82.719 81.229C84.5511 79.397 84.5511 76.4266 82.719 74.5945C80.8869 72.7624 77.9165 72.7624 76.0845 74.5945C74.2524 76.4266 74.2524 79.397 76.0845 81.229ZM22.0613 20.5708C20.2293 22.4029 17.2589 22.4029 15.4268 20.5708C13.5947 18.7387 13.5947 15.7684 15.4268 13.9363C17.2589 12.1042 20.2293 12.1042 22.0613 13.9363C23.8934 15.7684 23.8934 18.7387 22.0613 20.5708ZM82.7186 20.5712C84.5507 18.7391 84.5507 15.7687 82.7186 13.9367C80.8866 12.1046 77.9162 12.1046 76.0841 13.9367C74.252 15.7687 74.252 18.7391 76.0841 20.5712C77.9162 22.4033 80.8866 22.4033 82.7186 20.5712ZM22.062 74.5943C23.8941 76.4264 23.8941 79.3968 22.062 81.2289C20.23 83.061 17.2596 83.061 15.4275 81.2289C13.5954 79.3968 13.5954 76.4264 15.4275 74.5943C17.2596 72.7623 20.23 72.7623 22.062 74.5943Z" fill="url(#paint0_linear_171_3848)"/>
  <defs>
    <linearGradient id="paint0_linear_171_3848" x1="48.799" y1="0.000244141" x2="48.799" y2="94.6064" gradientUnits="userSpaceOnUse">
      <stop stop-color="#FFD600"/>
      <stop offset="1" stop-color="#FFB800"/>
    </linearGradient>
  </defs>
</svg>