<svg xmlns="http://www.w3.org/2000/svg" width="104" height="81" viewBox="0 0 104 81" fill="none">
  <path fill-rule="evenodd" clip-rule="evenodd" d="M74.8345 0C76.4154 0 77.697 1.28156 77.697 2.86245C77.697 4.44334 76.4154 5.7249 74.8345 5.7249C73.2537 5.7249 71.9721 4.44334 71.9721 2.86245C71.9721 1.28156 73.2537 0 74.8345 0ZM74.8345 48.2527C85.4491 48.2527 94.0539 39.648 94.0539 29.0334C94.0539 18.4189 85.4491 9.81412 74.8345 9.81412C64.22 9.81412 55.6152 18.4189 55.6152 29.0334C55.6152 39.648 64.22 48.2527 74.8345 48.2527ZM101.006 31.8959C102.586 31.8959 103.868 30.6143 103.868 29.0334C103.868 27.4525 102.586 26.171 101.006 26.171C99.4246 26.171 98.1431 27.4525 98.1431 29.0334C98.1431 30.6143 99.4246 31.8959 101.006 31.8959ZM95.3639 49.5632C94.246 50.6811 92.4336 50.6811 91.3158 49.5632C90.1979 48.4454 90.1979 46.633 91.3158 45.5151C92.4336 44.3972 94.246 44.3972 95.3639 45.5151C96.4818 46.633 96.4818 48.4454 95.3639 49.5632ZM54.3052 12.5518C55.423 13.6697 57.2354 13.6697 58.3533 12.5518C59.4712 11.434 59.4712 9.62156 58.3533 8.50371C57.2354 7.38585 55.423 7.38585 54.3052 8.50371C53.1873 9.62156 53.1873 11.434 54.3052 12.5518ZM91.3162 12.5522C90.1983 11.4343 90.1983 9.62193 91.3162 8.50407C92.434 7.38622 94.2464 7.38622 95.3643 8.50407C96.4821 9.62193 96.4821 11.4343 95.3643 12.5522C94.2464 13.67 92.434 13.67 91.3162 12.5522Z" fill="#FFD600"/>
  <path fill-rule="evenodd" clip-rule="evenodd" d="M7.18622 41.0662C11.27 36.9823 16.4353 34.6391 21.7601 34.0364C22.351 21.0108 33.0983 10.6318 46.2698 10.6318C59.0187 10.6318 69.4965 20.3554 70.6915 32.7909C82.9208 30.8788 94.8755 38.462 98.1515 50.6882C101.656 63.7683 93.9015 77.2128 80.8284 80.7307C82.0302 80.3937 82.7402 79.1514 82.4163 77.9425C82.09 76.7249 80.8385 76.0024 79.621 76.3286L79.6207 76.3287L79.6206 76.3286L79.6207 76.3285C90.2743 73.4739 96.5967 62.5233 93.742 51.8697C90.8874 41.216 79.9368 34.8937 69.2832 37.7483L69.2831 37.7483C68.1185 38.0604 66.9228 37.4129 66.5355 36.2904C66.3478 35.9588 66.2406 35.5756 66.2406 35.1674V35.1673H66.2401V35.167C66.2401 24.1375 57.2989 15.1964 46.2695 15.1964C35.6501 15.1964 26.9667 23.485 26.3356 33.9457C31.9855 34.3588 37.5196 36.7198 41.8467 41.0285C41.8597 41.041 41.8726 41.0536 41.8854 41.0664C42.7767 41.9577 42.7767 43.4028 41.8854 44.2941C40.9941 45.1854 39.549 45.1854 38.6576 44.2941L38.657 44.2935L38.6567 44.2938C30.8577 36.4949 18.2131 36.4949 10.4142 44.2939C2.62806 52.08 2.6152 64.6958 10.3756 72.4979C10.3889 72.5106 10.4021 72.5235 10.4152 72.5365C11.3065 73.4279 11.3065 74.873 10.4152 75.7643C9.52388 76.6556 8.07877 76.6556 7.18746 75.7643L7.18685 75.7637L7.18622 75.7643C-2.39541 66.1827 -2.39541 50.6478 7.18622 41.0662ZM79.6207 76.3287C78.4033 76.6551 77.6809 77.9065 78.0071 79.1239C78.3333 80.3414 79.5847 81.0638 80.8022 80.7377L79.6207 76.3287Z" fill="#213435"/>
</svg>