<svg xmlns="http://www.w3.org/2000/svg" width="103" height="90" viewBox="0 0 103 90" fill="none">
  <path fill-rule="evenodd" clip-rule="evenodd" d="M52.069 23.0286L52.0875 22.9999C58.1349 13.7946 70.4969 11.222 79.7156 17.2565C88.9438 23.2972 91.5278 35.675 85.4872 44.9032L85.487 44.9034L85.4875 44.9037C85.4875 44.9038 85.4875 44.9038 85.4874 44.9038C84.7971 45.9585 85.0924 47.3731 86.147 48.0635C87.2017 48.7538 88.6163 48.4585 89.3067 47.4038C89.3122 47.3954 89.3177 47.3869 89.3231 47.3784C96.7233 36.0435 93.545 20.8535 82.2159 13.4376C70.8846 6.02034 55.688 9.18744 48.2622 20.5098L48.25 20.5284L52.0875 22.9999L48.2498 20.5286C47.5594 21.5832 47.8547 22.9978 48.9094 23.6882C49.964 24.3786 51.3786 24.0832 52.069 23.0286Z" fill="#FFD600"/>
  <path fill-rule="evenodd" clip-rule="evenodd" d="M7.18622 50.0662C11.27 45.9823 16.4353 43.6391 21.7601 43.0364C22.351 30.0108 33.0983 19.6318 46.2698 19.6318C59.0187 19.6318 69.4965 29.3554 70.6915 41.7909C82.9208 39.8788 94.8755 47.462 98.1515 59.6882C101.656 72.7683 93.9015 86.2128 80.8284 89.7307C82.0302 89.3937 82.7402 88.1514 82.4163 86.9425C82.09 85.7249 80.8385 85.0024 79.621 85.3286L79.6207 85.3287L79.6206 85.3286L79.6207 85.3285C90.2743 82.4739 96.5967 71.5233 93.742 60.8697C90.8874 50.216 79.9368 43.8937 69.2832 46.7483L69.2831 46.7483C68.1185 47.0604 66.9228 46.4129 66.5355 45.2904C66.3478 44.9588 66.2406 44.5756 66.2406 44.1674V44.1673H66.2401V44.167C66.2401 33.1375 57.2989 24.1964 46.2695 24.1964C35.6501 24.1964 26.9667 32.485 26.3356 42.9457C31.9855 43.3588 37.5196 45.7198 41.8467 50.0285C41.8597 50.041 41.8726 50.0536 41.8854 50.0664C42.7767 50.9577 42.7767 52.4028 41.8854 53.2941C40.9941 54.1854 39.549 54.1854 38.6576 53.2941L38.657 53.2935L38.6567 53.2938C30.8577 45.4949 18.2131 45.4949 10.4142 53.2939C2.62806 61.08 2.6152 73.6958 10.3756 81.4979C10.3889 81.5106 10.4021 81.5235 10.4152 81.5365C11.3065 82.4279 11.3065 83.873 10.4152 84.7643C9.52388 85.6556 8.07877 85.6556 7.18746 84.7643L7.18685 84.7637L7.18622 84.7643C-2.39541 75.1827 -2.39541 59.6478 7.18622 50.0662ZM79.6207 85.3287C78.4033 85.6551 77.6809 86.9065 78.0071 88.1239C78.3333 89.3414 79.5847 90.0638 80.8022 89.7377L79.6207 85.3287Z" fill="#213435"/>
</svg>