<svg xmlns="http://www.w3.org/2000/svg" width="134" height="91" viewBox="0 0 134 91" fill="none">
  <path fill-rule="evenodd" clip-rule="evenodd" d="M52.069 23.5729L52.0875 23.5442C58.1349 14.3389 70.4969 11.7664 79.7156 17.8008C88.9438 23.8415 91.5278 36.2193 85.4872 45.4475L85.487 45.4477L85.4875 45.448C85.4875 45.4481 85.4875 45.4481 85.4874 45.4481C84.7971 46.5028 85.0924 47.9174 86.147 48.6078C87.2017 49.2981 88.6163 49.0028 89.3067 47.9482C89.3123 47.9396 89.3178 47.931 89.3233 47.9224C96.7233 36.5876 93.5449 21.3978 82.2159 13.9819C70.8846 6.56465 55.688 9.73176 48.2622 21.0541L48.25 21.0727L52.0875 23.5442L48.2498 21.0729C47.5594 22.1275 47.8547 23.5421 48.9094 24.2325C49.964 24.9229 51.3786 24.6276 52.069 23.5729Z" fill="#FFD600"/>
  <path fill-rule="evenodd" clip-rule="evenodd" d="M87.5672 49.3908L87.5944 49.3701C96.4095 42.7671 108.91 44.5475 115.53 53.3551C122.157 62.1717 120.382 74.6912 111.566 81.3181L111.565 81.3183L111.566 81.3188C111.566 81.3188 111.566 81.3188 111.566 81.3188C110.558 82.0762 110.355 83.507 111.113 84.5146C111.87 85.5222 113.301 85.7251 114.308 84.9677C114.316 84.9616 114.325 84.9554 114.333 84.9491C125.143 76.8028 127.315 61.4366 119.179 50.6129C111.042 39.787 95.6735 37.6026 84.8427 45.7285L84.8248 45.7419L87.5944 49.3701L84.8246 45.7419C83.817 46.4993 83.6141 47.9301 84.3715 48.9377C85.1288 49.9453 86.5596 50.1482 87.5672 49.3908Z" fill="#FFD600"/>
  <path fill-rule="evenodd" clip-rule="evenodd" d="M7.18622 50.6106C11.27 46.5268 16.4353 44.1835 21.7601 43.5809C22.351 30.5553 33.0983 20.1763 46.2698 20.1763C59.0187 20.1763 69.4965 29.8998 70.6915 42.3353C82.9208 40.4233 94.8755 48.0064 98.1515 60.2326C101.656 73.3127 93.9015 86.7572 80.8284 90.2751C82.0302 89.9381 82.7402 88.6958 82.4163 87.4869C82.09 86.2694 80.8385 85.5468 79.621 85.8731L79.6207 85.8731L79.6206 85.873L79.6207 85.873C90.2743 83.0183 96.5967 72.0677 93.742 61.4141C90.8874 50.7605 79.9368 44.4381 69.2832 47.2928L69.2831 47.2928C68.1185 47.6048 66.9228 46.9573 66.5355 45.8348C66.3478 45.5033 66.2406 45.1201 66.2406 44.7118V44.7117H66.2401V44.7114C66.2401 33.682 57.2989 24.7408 46.2695 24.7408C35.6501 24.7408 26.9667 33.0294 26.3356 43.4901C31.9855 43.9033 37.5196 46.2642 41.8467 50.573C41.8597 50.5854 41.8726 50.598 41.8854 50.6108C42.7767 51.5021 42.7767 52.9472 41.8854 53.8385C40.9941 54.7298 39.549 54.7298 38.6576 53.8385L38.657 53.8379L38.6567 53.8382C30.8577 46.0393 18.2131 46.0394 10.4142 53.8383C2.62806 61.6244 2.6152 74.2402 10.3756 82.0423C10.3889 82.055 10.4021 82.0679 10.4152 82.081C11.3065 82.9723 11.3065 84.4174 10.4152 85.3087C9.52388 86.2 8.07877 86.2 7.18746 85.3087L7.18685 85.3081L7.18622 85.3087C-2.39541 75.7271 -2.39541 60.1922 7.18622 50.6106ZM79.6207 85.8731C78.4033 86.1995 77.6809 87.4509 78.0071 88.6684C78.3333 89.8858 79.5847 90.6083 80.8022 90.2822L79.6207 85.8731Z" fill="#213435"/>
</svg>