<svg xmlns="http://www.w3.org/2000/svg" width="161" height="136" viewBox="0 0 161 136" fill="none">
  <path fill-rule="evenodd" clip-rule="evenodd" d="M52.069 48.5729L52.0875 48.5442C58.1349 39.3389 70.4969 36.7664 79.7156 42.8008C88.9438 48.8415 91.5278 61.2193 85.4872 70.4475L85.487 70.4477L85.4875 70.448C85.4875 70.4481 85.4875 70.4481 85.4874 70.4481C84.7971 71.5028 85.0924 72.9174 86.147 73.6078C87.2017 74.2981 88.6163 74.0028 89.3067 72.9482C89.3122 72.9397 89.3177 72.9312 89.3231 72.9227C96.7233 61.5879 93.545 46.3978 82.2159 38.9819C70.8846 31.5647 55.688 34.7318 48.2622 46.0541L48.25 46.0727L52.0875 48.5442L48.2498 46.0729C47.5594 47.1275 47.8547 48.5421 48.9094 49.2325C49.964 49.9229 51.3786 49.6276 52.069 48.5729Z" fill="#646464"/>
  <path fill-rule="evenodd" clip-rule="evenodd" d="M87.5672 74.3908L87.5944 74.3701C96.4095 67.7671 108.91 69.5475 115.53 78.3551C122.157 87.1717 120.382 99.6912 111.566 106.318L111.565 106.318L111.566 106.319C111.566 106.319 111.566 106.319 111.566 106.319C110.558 107.076 110.355 108.507 111.113 109.515C111.87 110.522 113.301 110.725 114.308 109.968C114.316 109.962 114.325 109.955 114.333 109.949C125.143 101.803 127.315 86.4366 119.179 75.6129C111.042 64.787 95.6735 62.6026 84.8427 70.7285L84.8248 70.7419L87.5944 74.3701L84.8246 70.7419C83.817 71.4993 83.6141 72.9301 84.3715 73.9377C85.1288 74.9453 86.5596 75.1482 87.5672 74.3908Z" fill="#646464"/>
  <path fill-rule="evenodd" clip-rule="evenodd" d="M7.18622 75.6106C11.27 71.5268 16.4353 69.1835 21.7601 68.5809C22.351 55.5553 33.0983 45.1763 46.2698 45.1763C59.0187 45.1763 69.4965 54.8998 70.6915 67.3354C82.9208 65.4233 94.8755 73.0064 98.1515 85.2326C101.656 98.3127 93.9015 111.757 80.8284 115.275L80.8024 115.282C79.5849 115.608 78.3334 114.886 78.0071 113.668C77.6809 112.451 78.4033 111.2 79.6207 110.873L79.6206 110.873L79.6207 110.873C90.2743 108.018 96.5967 97.0677 93.742 86.4141C90.8874 75.7605 79.9368 69.4381 69.2832 72.2928L69.2831 72.2928C68.1185 72.6048 66.9228 71.9573 66.5355 70.8348C66.3478 70.5033 66.2406 70.1201 66.2406 69.7118V69.7117H66.2401V69.7114C66.2401 58.682 57.2989 49.7408 46.2695 49.7408C35.6501 49.7408 26.9667 58.0294 26.3356 68.4901C31.9855 68.9033 37.5196 71.2642 41.8467 75.573C41.8597 75.5854 41.8726 75.598 41.8854 75.6108C42.7767 76.5021 42.7767 77.9472 41.8854 78.8385C40.9941 79.7298 39.549 79.7298 38.6576 78.8385L38.657 78.8379L38.6567 78.8382C30.8577 71.0393 18.2131 71.0394 10.4142 78.8383C2.62806 86.6244 2.6152 99.2402 10.3756 107.042C10.3889 107.055 10.4021 107.068 10.4152 107.081C11.3065 107.972 11.3065 109.417 10.4152 110.309C9.52388 111.2 8.07877 111.2 7.18746 110.309L7.18685 110.308L7.18622 110.309C-2.39541 100.727 -2.39541 85.1922 7.18622 75.6106Z" fill="#213435"/>
</svg>