<svg xmlns="http://www.w3.org/2000/svg" width="111" height="103" viewBox="0 0 111 103" fill="none">
  <path fill-rule="evenodd" clip-rule="evenodd" d="M31.554 3.11105C34.1448 14.7295 27.1327 26.4301 15.5249 29.5404C11.9277 30.5043 8.30016 30.5331 4.90049 29.7757C4.97008 30.0878 5.04661 30.3998 5.13016 30.7116C8.32401 42.6312 20.5759 49.7049 32.4955 46.511C44.4151 43.3172 51.4888 31.0653 48.2949 19.1457C46.0649 10.8233 39.4192 4.86333 31.554 3.11105Z" fill="url(#paint0_linear_171_3566)"/>
  <path fill-rule="evenodd" clip-rule="evenodd" d="M19.1862 44.4343C23.27 40.3505 28.4353 38.0073 33.7601 37.4046C34.351 24.379 45.0983 14 58.2698 14C71.0187 14 81.4965 23.7236 82.6915 36.1591C94.9208 34.247 106.876 41.8301 110.152 54.0563C113.656 67.1364 105.901 80.5809 92.8284 84.0988C94.0302 83.7619 94.7402 82.5195 94.4163 81.3107C94.09 80.0931 92.8385 79.3706 91.621 79.6968L91.6207 79.6969L91.6206 79.6967L91.6207 79.6967C102.274 76.8421 108.597 65.8915 105.742 55.2378C102.887 44.5842 91.9368 38.2619 81.2832 41.1165L81.2831 41.1165C80.1185 41.4286 78.9228 40.781 78.5355 39.6586C78.3478 39.327 78.2406 38.9438 78.2406 38.5356V38.5354H78.2401V38.5351C78.2401 27.5057 69.2989 18.5646 58.2695 18.5646C47.6501 18.5646 38.9667 26.8531 38.3356 37.3138C43.9855 37.727 49.5196 40.088 53.8467 44.3967C53.8597 44.4091 53.8726 44.4217 53.8854 44.4345C54.7767 45.3258 54.7767 46.7709 53.8854 47.6623C52.9941 48.5536 51.549 48.5536 50.6576 47.6623L50.657 47.6616L50.6567 47.6619C42.8577 39.8631 30.2131 39.8631 22.4142 47.662C14.6281 55.4482 14.6152 68.0639 22.3756 75.866C22.3889 75.8787 22.4021 75.8916 22.4152 75.9047C23.3065 76.796 23.3065 78.2411 22.4152 79.1324C21.5239 80.0238 20.0788 80.0238 19.1875 79.1324L19.1868 79.1318L19.1862 79.1325C9.60459 69.5508 9.60459 54.0159 19.1862 44.4343ZM91.6207 79.6969C90.4033 80.0232 89.6809 81.2746 90.0071 82.4921C90.3333 83.7096 91.5847 84.432 92.8022 84.1059L91.6207 79.6969Z" fill="#213435"/>
  <path fill-rule="evenodd" clip-rule="evenodd" d="M19.1862 44.4343C23.27 40.3505 28.4353 38.0073 33.7601 37.4046C34.351 24.379 45.0983 14 58.2698 14C71.0187 14 81.4965 23.7236 82.6915 36.1591C94.9208 34.247 106.876 41.8301 110.152 54.0563C113.656 67.1364 105.901 80.5809 92.8284 84.0988L92.8024 84.106C91.5849 84.4322 90.3334 83.7096 90.0071 82.4921C89.6809 81.2746 90.4033 80.0232 91.6207 79.6969L91.6206 79.6967L91.6207 79.6967C102.274 76.8421 108.597 65.8915 105.742 55.2378C102.887 44.5842 91.9368 38.2619 81.2832 41.1165L81.2831 41.1165C80.1185 41.4285 78.9228 40.781 78.5355 39.6586C78.3478 39.327 78.2406 38.9438 78.2406 38.5356V38.5354H78.2401V38.5351C78.2401 27.5057 69.2989 18.5646 58.2695 18.5646C47.6501 18.5646 38.9667 26.8531 38.3356 37.3138C43.9855 37.727 49.5196 40.088 53.8467 44.3967C53.8597 44.4091 53.8726 44.4217 53.8854 44.4345C54.7767 45.3258 54.7767 46.7709 53.8854 47.6623C52.9941 48.5536 51.549 48.5536 50.6576 47.6623L50.657 47.6616L50.6567 47.6619C42.8577 39.8631 30.2131 39.8631 22.4142 47.662C14.6281 55.4482 14.6152 68.0639 22.3756 75.866C22.3889 75.8787 22.4021 75.8916 22.4152 75.9047C23.3065 76.796 23.3065 78.2411 22.4152 79.1324C21.5239 80.0238 20.0788 80.0238 19.1875 79.1324L19.1868 79.1318L19.1862 79.1325C9.60459 69.5508 9.60459 54.0159 19.1862 44.4343Z" fill="#213435"/>
  <rect x="57" y="62" width="5" height="13" rx="2.5" fill="url(#paint1_linear_171_3566)"/>
  <rect x="42" y="69" width="5" height="13" rx="2.5" fill="url(#paint2_linear_171_3566)"/>
  <rect x="32" y="79" width="5" height="13" rx="2.5" fill="url(#paint3_linear_171_3566)"/>
  <rect x="51" y="83" width="5" height="13" rx="2.5" fill="url(#paint4_linear_171_3566)"/>
  <rect x="65" y="90" width="5" height="13" rx="2.5" fill="url(#paint5_linear_171_3566)"/>
  <rect x="68" y="70" width="5" height="13" rx="2.5" fill="url(#paint6_linear_171_3566)"/>
  <rect x="79" y="79" width="5" height="13" rx="2.5" fill="url(#paint7_linear_171_3566)"/>
  <defs>
    <linearGradient id="paint0_linear_171_3566" x1="49.5497" y1="23.8286" x2="6.38581" y2="35.3943" gradientUnits="userSpaceOnUse">
      <stop stop-color="#E1E1E1"/>
      <stop offset="1" stop-color="#646464"/>
    </linearGradient>
    <linearGradient id="paint1_linear_171_3566" x1="59.5" y1="62" x2="59.5" y2="75" gradientUnits="userSpaceOnUse">
      <stop stop-color="#89B9FF"/>
      <stop offset="1" stop-color="#4B94FF"/>
    </linearGradient>
    <linearGradient id="paint2_linear_171_3566" x1="44.5" y1="69" x2="44.5" y2="82" gradientUnits="userSpaceOnUse">
      <stop stop-color="#89B9FF"/>
      <stop offset="1" stop-color="#4B94FF"/>
    </linearGradient>
    <linearGradient id="paint3_linear_171_3566" x1="34.5" y1="79" x2="34.5" y2="92" gradientUnits="userSpaceOnUse">
      <stop stop-color="#89B9FF"/>
      <stop offset="1" stop-color="#4B94FF"/>
    </linearGradient>
    <linearGradient id="paint4_linear_171_3566" x1="53.5" y1="83" x2="53.5" y2="96" gradientUnits="userSpaceOnUse">
      <stop stop-color="#89B9FF"/>
      <stop offset="1" stop-color="#4B94FF"/>
    </linearGradient>
    <linearGradient id="paint5_linear_171_3566" x1="67.5" y1="90" x2="67.5" y2="103" gradientUnits="userSpaceOnUse">
      <stop stop-color="#89B9FF"/>
      <stop offset="1" stop-color="#4B94FF"/>
    </linearGradient>
    <linearGradient id="paint6_linear_171_3566" x1="70.5" y1="70" x2="70.5" y2="83" gradientUnits="userSpaceOnUse">
      <stop stop-color="#89B9FF"/>
      <stop offset="1" stop-color="#4B94FF"/>
    </linearGradient>
    <linearGradient id="paint7_linear_171_3566" x1="81.5" y1="79" x2="81.5" y2="92" gradientUnits="userSpaceOnUse">
      <stop stop-color="#89B9FF"/>
      <stop offset="1" stop-color="#4B94FF"/>
    </linearGradient>
  </defs>
</svg>