<svg xmlns="http://www.w3.org/2000/svg" width="105" height="105" viewBox="0 0 105 105" fill="none">
  <path fill-rule="evenodd" clip-rule="evenodd" d="M13.1862 42.4343C17.27 38.3505 22.4353 36.0073 27.7601 35.4046C28.351 22.379 39.0983 12 52.2698 12C65.0187 12 75.4965 21.7236 76.6915 34.1591C88.9208 32.247 100.876 39.8301 104.152 52.0563C107.656 65.1364 99.9015 78.5809 86.8284 82.0988L86.8024 82.106C85.5849 82.4322 84.3334 81.7096 84.0071 80.4921C83.6809 79.2746 84.4033 78.0232 85.6207 77.6969L85.6206 77.6967L85.6207 77.6967C96.2743 74.8421 102.597 63.8915 99.742 53.2378C96.8874 42.5842 85.9368 36.2619 75.2832 39.1165L75.2831 39.1165C74.1185 39.4285 72.9228 38.781 72.5355 37.6586C72.3478 37.327 72.2406 36.9438 72.2406 36.5356V36.5354H72.2401V36.5351C72.2401 25.5057 63.2989 16.5646 52.2695 16.5646C41.6501 16.5646 32.9667 24.8531 32.3356 35.3138C37.9855 35.727 43.5196 38.088 47.8467 42.3967C47.8597 42.4091 47.8726 42.4217 47.8854 42.4345C48.7767 43.3258 48.7767 44.7709 47.8854 45.6623C46.9941 46.5536 45.549 46.5536 44.6576 45.6623L44.657 45.6616L44.6567 45.6619C36.8577 37.8631 24.2131 37.8631 16.4142 45.662C8.62806 53.4482 8.6152 66.0639 16.3756 73.866C16.3889 73.8787 16.4021 73.8916 16.4152 73.9047C17.3065 74.796 17.3065 76.2411 16.4152 77.1324C15.5239 78.0238 14.0788 78.0238 13.1875 77.1324L13.1868 77.1318L13.1862 77.1325C3.60459 67.5508 3.60459 52.0159 13.1862 42.4343Z" fill="#213435"/>
  <path fill-rule="evenodd" clip-rule="evenodd" d="M31.554 3.11105C34.1448 14.7295 27.1327 26.4301 15.5249 29.5404C11.9277 30.5043 8.30016 30.5331 4.90049 29.7757C4.97008 30.0878 5.04661 30.3998 5.13016 30.7116C8.32401 42.6312 20.5759 49.7049 32.4955 46.511C44.4151 43.3172 51.4888 31.0653 48.2949 19.1457C46.0649 10.8233 39.4192 4.86333 31.554 3.11105Z" fill="url(#paint0_linear_573_2560)"/>
  <path fill-rule="evenodd" clip-rule="evenodd" d="M13.1862 42.4343C17.27 38.3505 22.4353 36.0073 27.7601 35.4046C28.351 22.379 39.0983 12 52.2698 12C65.0187 12 75.4965 21.7236 76.6915 34.1591C88.9208 32.247 100.876 39.8301 104.152 52.0563C107.656 65.1364 99.9015 78.5809 86.8284 82.0988C88.0302 81.7619 88.7402 80.5195 88.4163 79.3107C88.09 78.0931 86.8385 77.3706 85.621 77.6968L85.6207 77.6969L85.6206 77.6967L85.6207 77.6967C96.2743 74.8421 102.597 63.8915 99.742 53.2378C96.8874 42.5842 85.9368 36.2619 75.2832 39.1165L75.2831 39.1165C74.1185 39.4286 72.9228 38.781 72.5355 37.6586C72.3478 37.327 72.2406 36.9438 72.2406 36.5356V36.5354H72.2401V36.5351C72.2401 25.5057 63.2989 16.5646 52.2695 16.5646C41.6501 16.5646 32.9667 24.8531 32.3356 35.3138C37.9855 35.727 43.5196 38.088 47.8467 42.3967C47.8597 42.4091 47.8726 42.4217 47.8854 42.4345C48.7767 43.3258 48.7767 44.7709 47.8854 45.6623C46.9941 46.5536 45.549 46.5536 44.6576 45.6623L44.657 45.6616L44.6567 45.6619C36.8577 37.8631 24.2131 37.8631 16.4142 45.662C8.62806 53.4482 8.6152 66.0639 16.3756 73.866C16.3889 73.8787 16.4021 73.8916 16.4152 73.9047C17.3065 74.796 17.3065 76.2411 16.4152 77.1324C15.5239 78.0238 14.0788 78.0238 13.1875 77.1324L13.1868 77.1318L13.1862 77.1325C3.60459 67.5508 3.60459 52.0159 13.1862 42.4343ZM85.6207 77.6969C84.4033 78.0232 83.6809 79.2746 84.0071 80.4921C84.3333 81.7096 85.5847 82.432 86.8022 82.1059L85.6207 77.6969Z" fill="#213435"/>
  <rect x="65.0205" y="68" width="5" height="17" rx="2.5" transform="rotate(45 65.0205 68)" fill="url(#paint1_linear_573_2560)"/>
  <rect x="51.1582" y="64" width="5" height="22.8512" rx="2.5" transform="rotate(45 51.1582 64)" fill="url(#paint2_linear_573_2560)"/>
  <rect x="71.0205" y="82" width="5" height="13.4841" rx="2.5" transform="rotate(45 71.0205 82)" fill="url(#paint3_linear_573_2560)"/>
  <rect x="31.5352" y="84" width="5" height="13.4841" rx="2.5" transform="rotate(45 31.5352 84)" fill="url(#paint4_linear_573_2560)"/>
  <rect x="48.5352" y="88" width="5" height="17.9349" rx="2.5" transform="rotate(45 48.5352 88)" fill="url(#paint5_linear_573_2560)"/>
  <defs>
    <linearGradient id="paint0_linear_573_2560" x1="49.5497" y1="23.8286" x2="6.38581" y2="35.3943" gradientUnits="userSpaceOnUse">
      <stop stop-color="#E1E1E1"/>
      <stop offset="1" stop-color="#646464"/>
    </linearGradient>
    <linearGradient id="paint1_linear_573_2560" x1="67.5205" y1="68" x2="67.5205" y2="85" gradientUnits="userSpaceOnUse">
      <stop stop-color="#89B9FF"/>
      <stop offset="1" stop-color="#4B94FF"/>
    </linearGradient>
    <linearGradient id="paint2_linear_573_2560" x1="53.6582" y1="64" x2="53.6582" y2="86.8512" gradientUnits="userSpaceOnUse">
      <stop stop-color="#89B9FF"/>
      <stop offset="1" stop-color="#4B94FF"/>
    </linearGradient>
    <linearGradient id="paint3_linear_573_2560" x1="73.5205" y1="82" x2="73.5205" y2="95.4841" gradientUnits="userSpaceOnUse">
      <stop stop-color="#89B9FF"/>
      <stop offset="1" stop-color="#4B94FF"/>
    </linearGradient>
    <linearGradient id="paint4_linear_573_2560" x1="34.0352" y1="84" x2="34.0352" y2="97.4841" gradientUnits="userSpaceOnUse">
      <stop stop-color="#89B9FF"/>
      <stop offset="1" stop-color="#4B94FF"/>
    </linearGradient>
    <linearGradient id="paint5_linear_573_2560" x1="51.0352" y1="88" x2="51.0352" y2="105.935" gradientUnits="userSpaceOnUse">
      <stop stop-color="#89B9FF"/>
      <stop offset="1" stop-color="#4B94FF"/>
    </linearGradient>
  </defs>
</svg>