<svg xmlns="http://www.w3.org/2000/svg" width="99" height="94" viewBox="0 0 99 94" fill="none">
  <path fill-rule="evenodd" clip-rule="evenodd" d="M7.18622 30.4343C11.27 26.3505 16.4353 24.0073 21.7601 23.4046C22.351 10.379 33.0983 0 46.2698 0C59.0187 0 69.4965 9.72357 70.6915 22.1591C82.9208 20.247 94.8755 27.8301 98.1515 40.0563C101.656 53.1364 93.9015 66.5809 80.8284 70.0988C82.0302 69.7619 82.7402 68.5195 82.4163 67.3107C82.09 66.0931 80.8385 65.3706 79.621 65.6968L79.6207 65.6969L79.6206 65.6967L79.6207 65.6967C90.2743 62.8421 96.5967 51.8915 93.742 41.2378C90.8874 30.5842 79.9368 24.2619 69.2832 27.1165L69.2831 27.1165C68.1185 27.4286 66.9228 26.781 66.5355 25.6586C66.3478 25.327 66.2406 24.9438 66.2406 24.5356V24.5354H66.2401V24.5351C66.2401 13.5057 57.2989 4.56455 46.2695 4.56455C35.6501 4.56455 26.9667 12.8531 26.3356 23.3138C31.9855 23.727 37.5196 26.088 41.8467 30.3967C41.8597 30.4091 41.8726 30.4217 41.8854 30.4345C42.7767 31.3258 42.7767 32.7709 41.8854 33.6623C40.9941 34.5536 39.549 34.5536 38.6576 33.6623L38.657 33.6616L38.6567 33.6619C30.8577 25.8631 18.2131 25.8631 10.4142 33.662C2.62806 41.4482 2.6152 54.0639 10.3756 61.866C10.3889 61.8787 10.4021 61.8916 10.4152 61.9047C11.3065 62.796 11.3065 64.2411 10.4152 65.1324C9.52388 66.0238 8.07877 66.0238 7.18746 65.1324L7.18685 65.1318L7.18622 65.1325C-2.39541 55.5508 -2.39541 40.0159 7.18622 30.4343ZM79.6207 65.6969C78.4033 66.0232 77.6809 67.2746 78.0071 68.4921C78.3333 69.7096 79.5847 70.432 80.8022 70.1059L79.6207 65.6969Z" fill="#213435"/>
  <path fill-rule="evenodd" clip-rule="evenodd" d="M55.2043 46.4101C55.0816 46.3827 54.9541 46.3682 54.8232 46.3682H43.64C42.6816 46.3682 41.9047 47.1451 41.9047 48.1035C41.9047 48.12 41.9049 48.1364 41.9054 48.1528C41.8917 48.1923 41.8793 48.2327 41.8683 48.2737L36.0596 69.9521C35.8115 70.8779 36.3609 71.8294 37.2866 72.0775C37.4441 72.1197 37.6023 72.1388 37.7577 72.1369C37.9112 72.1813 38.0734 72.2052 38.2412 72.2052H43.6516L38.5221 91.3486C38.274 92.2744 38.8234 93.2259 39.7491 93.474C39.8783 93.5086 40.008 93.5277 40.1362 93.5324C40.6929 93.652 41.297 93.4956 41.7296 93.063L66.5427 68.2499C66.6661 68.1265 66.7671 67.9891 66.8455 67.8429C67.1609 67.5287 67.356 67.0939 67.356 66.6136C67.356 65.6552 66.5791 64.8782 65.6207 64.8782H52.5805L56.9439 48.5939C57.1919 47.6682 56.6425 46.7166 55.7168 46.4686C55.5453 46.4226 55.3729 46.404 55.2043 46.4101ZM45.7088 68.7401C45.9221 68.7146 46.1437 68.7285 46.3639 68.7875C47.2896 69.0355 47.839 69.9871 47.5909 70.9128L43.4253 86.4591L61.5355 68.3489L50.5813 68.3489C50.5169 68.3489 50.4534 68.3454 50.3909 68.3386C50.2203 68.3453 50.0459 68.3269 49.8724 68.2804C48.9466 68.0323 48.3973 67.0808 48.6453 66.155L53.0172 49.8388L45.042 49.8388L39.9789 68.7345H45.5681C45.6155 68.7345 45.6624 68.7364 45.7088 68.7401Z" fill="#FFD600"/>
  <rect x="73.0205" y="47" width="5" height="17" rx="2.5" transform="rotate(45 73.0205 47)" fill="url(#paint0_linear_171_3170)"/>
  <rect x="32.1582" y="56" width="5" height="22.8512" rx="2.5" transform="rotate(45 32.1582 56)" fill="url(#paint1_linear_171_3170)"/>
  <rect x="74.5352" y="70" width="5" height="13.4841" rx="2.5" transform="rotate(45 74.5352 70)" fill="url(#paint2_linear_171_3170)"/>
  <rect x="33.5352" y="73" width="5" height="13.4841" rx="2.5" transform="rotate(45 33.5352 73)" fill="url(#paint3_linear_171_3170)"/>
  <defs>
    <linearGradient id="paint0_linear_171_3170" x1="75.5205" y1="47" x2="75.5205" y2="64" gradientUnits="userSpaceOnUse">
      <stop stop-color="#89B9FF"/>
      <stop offset="1" stop-color="#4B94FF"/>
    </linearGradient>
    <linearGradient id="paint1_linear_171_3170" x1="34.6582" y1="56" x2="34.6582" y2="78.8512" gradientUnits="userSpaceOnUse">
      <stop stop-color="#89B9FF"/>
      <stop offset="1" stop-color="#4B94FF"/>
    </linearGradient>
    <linearGradient id="paint2_linear_171_3170" x1="77.0352" y1="70" x2="77.0352" y2="83.4841" gradientUnits="userSpaceOnUse">
      <stop stop-color="#89B9FF"/>
      <stop offset="1" stop-color="#4B94FF"/>
    </linearGradient>
    <linearGradient id="paint3_linear_171_3170" x1="36.0352" y1="73" x2="36.0352" y2="86.4841" gradientUnits="userSpaceOnUse">
      <stop stop-color="#89B9FF"/>
      <stop offset="1" stop-color="#4B94FF"/>
    </linearGradient>
  </defs>
</svg>