<svg width="32" height="33" viewBox="0 0 32 33" fill="none" xmlns="http://www.w3.org/2000/svg">
<path fill-rule="evenodd" clip-rule="evenodd" d="M17.6598 2.08682C17.6598 1.21045 16.9576 0.5 16.0914 0.5C15.2252 0.5 14.5229 1.21045 14.5229 2.08682C14.5229 2.9632 15.2252 3.67365 16.0914 3.67365C16.9576 3.67365 17.6598 2.9632 17.6598 2.08682ZM26.6225 16.5946C26.6225 22.4789 21.9076 27.249 16.0915 27.249C10.2754 27.249 5.56055 22.4789 5.56055 16.5946C5.56055 10.7104 10.2754 5.94025 16.0915 5.94025C21.9076 5.94025 26.6225 10.7104 26.6225 16.5946ZM16.0914 29.3265C16.9576 29.3265 17.6598 30.037 17.6598 30.9133C17.6598 31.7897 16.9576 32.5002 16.0914 32.5002C15.2252 32.5002 14.5229 31.7897 14.5229 30.9133C14.5229 30.037 15.2252 29.3265 16.0914 29.3265ZM30.4316 18.1815C31.2978 18.1815 32 17.471 32 16.5947C32 15.7183 31.2978 15.0078 30.4316 15.0078C29.5653 15.0078 28.8631 15.7183 28.8631 16.5947C28.8631 17.471 29.5653 18.1815 30.4316 18.1815ZM3.13688 16.5947C3.13688 17.471 2.43467 18.1815 1.56844 18.1815C0.702214 18.1815 0 17.471 0 16.5947C0 15.7183 0.702215 15.0078 1.56844 15.0078C2.43467 15.0078 3.13688 15.7183 3.13688 16.5947ZM25.1223 27.9753C25.7348 28.595 26.7279 28.595 27.3404 27.9753C27.9529 27.3557 27.9529 26.3509 27.3404 25.7312C26.7279 25.1116 25.7348 25.1116 25.1223 25.7312C24.5098 26.3509 24.5098 27.3557 25.1223 27.9753ZM7.06096 7.45791C6.44844 8.07761 5.45536 8.07761 4.84285 7.45791C4.23034 6.83822 4.23034 5.8335 4.84285 5.21381C5.45536 4.59412 6.44844 4.59412 7.06096 5.21381C7.67347 5.8335 7.67347 6.83822 7.06096 7.45791ZM27.3404 7.45807C27.9529 6.83838 27.9529 5.83366 27.3404 5.21397C26.7279 4.59427 25.7348 4.59427 25.1223 5.21397C24.5098 5.83366 24.5098 6.83838 25.1223 7.45807C25.7348 8.07776 26.7279 8.07776 27.3404 7.45807ZM7.06105 25.7312C7.67356 26.3509 7.67356 27.3556 7.06105 27.9753C6.44854 28.595 5.45546 28.595 4.84294 27.9753C4.23043 27.3556 4.23043 26.3509 4.84294 25.7312C5.45546 25.1115 6.44854 25.1115 7.06105 25.7312Z" fill="url(#paint0_linear_162_1348)"/>
<defs>
<linearGradient id="paint0_linear_162_1348" x1="16" y1="0.5" x2="16" y2="32.5002" gradientUnits="userSpaceOnUse">
<stop stop-color="#FFD600"/>
<stop offset="1" stop-color="#FFB800"/>
</linearGradient>
</defs>
</svg>
