<svg xmlns="http://www.w3.org/2000/svg" width="99" height="90" viewBox="0 0 99 90" fill="none">
  <path fill-rule="evenodd" clip-rule="evenodd" d="M7.18622 30.4343C11.27 26.3505 16.4353 24.0073 21.7601 23.4046C22.351 10.379 33.0983 0 46.2698 0C59.0187 0 69.4965 9.72357 70.6915 22.1591C82.9208 20.247 94.8755 27.8301 98.1515 40.0563C101.656 53.1364 93.9015 66.5809 80.8284 70.0988C82.0302 69.7619 82.7402 68.5195 82.4163 67.3107C82.09 66.0931 80.8385 65.3706 79.621 65.6968L79.6207 65.6969L79.6206 65.6967L79.6207 65.6967C90.2743 62.8421 96.5967 51.8915 93.742 41.2378C90.8874 30.5842 79.9368 24.2619 69.2832 27.1165L69.2831 27.1165C68.1185 27.4286 66.9228 26.781 66.5355 25.6586C66.3478 25.327 66.2406 24.9438 66.2406 24.5356V24.5354H66.2401V24.5351C66.2401 13.5057 57.2989 4.56455 46.2695 4.56455C35.6501 4.56455 26.9667 12.8531 26.3356 23.3138C31.9855 23.727 37.5196 26.088 41.8467 30.3967C41.8597 30.4091 41.8726 30.4217 41.8854 30.4345C42.7767 31.3258 42.7767 32.7709 41.8854 33.6623C40.9941 34.5536 39.549 34.5536 38.6576 33.6623L38.657 33.6616L38.6567 33.6619C30.8577 25.8631 18.2131 25.8631 10.4142 33.662C2.62806 41.4482 2.6152 54.0639 10.3756 61.866C10.3889 61.8787 10.4021 61.8916 10.4152 61.9047C11.3065 62.796 11.3065 64.2411 10.4152 65.1324C9.52388 66.0238 8.07877 66.0238 7.18746 65.1324L7.18685 65.1318L7.18622 65.1325C-2.39541 55.5508 -2.39541 40.0159 7.18622 30.4343ZM79.6207 65.6969C78.4033 66.0232 77.6809 67.2746 78.0071 68.4921C78.3333 69.7096 79.5847 70.432 80.8022 70.1059L79.6207 65.6969Z" fill="#213435"/>
  <path fill-rule="evenodd" clip-rule="evenodd" d="M49.8441 53.3533C49.3729 53.8245 49.3729 54.5883 49.8441 55.0594L52.6106 57.8259V61.2015L49.6876 59.5139L48.6751 55.735C48.5026 55.0915 47.8411 54.7095 47.1976 54.882C46.554 55.0544 46.1721 55.7159 46.3445 56.3595L47.2409 59.7047L43.8944 60.6014C43.2509 60.7738 42.869 61.4353 43.0414 62.0789C43.2138 62.7224 43.8753 63.1044 44.5189 62.9319L48.5974 61.8391C48.6603 61.8222 48.7207 61.8007 48.7784 61.775L51.5879 63.397L48.2981 65.2964L44.5192 64.2839C43.8757 64.1114 43.2142 64.4933 43.0417 65.1369C42.8693 65.7805 43.2512 66.442 43.8948 66.6144L47.2406 67.5109L46.3441 70.8567C46.1716 71.5002 46.5536 72.1617 47.1971 72.3342C47.8407 72.5066 48.5022 72.1247 48.6746 71.4811L49.7674 67.4027C49.7843 67.3398 49.7959 67.2767 49.8024 67.2139L52.6106 65.5926V69.3899L49.8441 72.1564C49.3729 72.6275 49.3729 73.3913 49.8441 73.8625C50.3152 74.3336 51.079 74.3336 51.5501 73.8625L53.9998 71.4128L56.4495 73.8625C56.9207 74.3336 57.6845 74.3336 58.1556 73.8625C58.6267 73.3913 58.6267 72.6275 58.1556 72.1564L55.17 69.1708C55.1237 69.1245 55.0747 69.0828 55.0233 69.0456V65.382L58.1954 67.2134C58.2019 67.2762 58.2135 67.3393 58.2303 67.4022L59.3232 71.4806C59.4956 72.1242 60.1571 72.5061 60.8007 72.3337C61.4442 72.1612 61.8261 71.4997 61.6537 70.8562L60.7574 67.511L64.1038 66.6143C64.7473 66.4418 65.1293 65.7803 64.9568 65.1368C64.7844 64.4932 64.1229 64.1113 63.4793 64.2837L59.7004 65.2963L56.4115 63.3974L59.2216 61.775C59.2793 61.8007 59.3397 61.8222 59.4026 61.8391L63.4811 62.9319C64.1246 63.1044 64.7861 62.7224 64.9586 62.0789C65.131 61.4353 64.7491 60.7738 64.1055 60.6014L60.7591 59.7047L61.6555 56.3595C61.8279 55.7159 61.446 55.0544 60.8024 54.882C60.1589 54.7095 59.4974 55.0915 59.3249 55.735L58.3124 59.5139L55.0233 61.4128V58.1702C55.0747 58.133 55.1237 58.0913 55.17 58.0451L58.1556 55.0594C58.6267 54.5883 58.6267 53.8245 58.1556 53.3533C57.6845 52.8822 56.9207 52.8822 56.4495 53.3533L53.9998 55.803L51.5501 53.3533C51.079 52.8822 50.3152 52.8822 49.8441 53.3533Z" fill="#77AEFF"/>
  <path fill-rule="evenodd" clip-rule="evenodd" d="M66.3558 73.2249C66.056 73.5247 66.056 74.0107 66.3558 74.3105L68.1165 76.0713V78.2194L66.2555 77.1449L65.6112 74.7402C65.5014 74.3307 65.0805 74.0876 64.6709 74.1974C64.2614 74.3071 64.0184 74.728 64.1281 75.1376L64.6986 77.2666L62.5692 77.8371C62.1597 77.9469 61.9166 78.3678 62.0263 78.7773C62.1361 79.1869 62.557 79.4299 62.9666 79.3202L65.562 78.6248C65.602 78.614 65.6405 78.6003 65.6772 78.5839L67.465 79.6161L65.3715 80.8248L62.9667 80.1804C62.5572 80.0707 62.1362 80.3137 62.0265 80.7233C61.9168 81.1328 62.1598 81.5538 62.5693 81.6635L64.6987 82.2341L64.1282 84.363C64.0185 84.7726 64.2616 85.1935 64.6711 85.3033C65.0806 85.413 65.5016 85.17 65.6113 84.7604L66.3068 82.165C66.3175 82.125 66.3248 82.0849 66.329 82.0449L68.1165 81.0129V83.4296L66.3558 85.1903C66.056 85.4901 66.056 85.9762 66.3558 86.276C66.6556 86.5758 67.1417 86.5758 67.4415 86.276L69.0004 84.7171L70.5593 86.276C70.8591 86.5758 71.3452 86.5758 71.645 86.276C71.9448 85.9762 71.9448 85.4901 71.645 85.1903L69.7451 83.2904C69.7157 83.261 69.6845 83.2345 69.6519 83.2109V80.8794L71.6707 82.0449C71.6749 82.0849 71.6822 82.125 71.693 82.165L72.3884 84.7604C72.4981 85.17 72.9191 85.413 73.3286 85.3033C73.7382 85.1935 73.9812 84.7726 73.8715 84.363L73.301 82.2341L75.4304 81.6635C75.8399 81.5538 76.083 81.1328 75.9732 80.7233C75.8635 80.3137 75.4425 80.0707 75.033 80.1804L72.6282 80.8248L70.5348 79.6162L72.3228 78.5839C72.3595 78.6003 72.398 78.614 72.438 78.6248L75.0334 79.3202C75.4429 79.4299 75.8639 79.1869 75.9736 78.7773C76.0834 78.3678 75.8403 77.9469 75.4308 77.8371L73.3014 77.2666L73.8719 75.1376C73.9816 74.728 73.7386 74.3071 73.329 74.1974C72.9195 74.0876 72.4985 74.3307 72.3888 74.7402L71.7445 77.1449L69.6519 78.353V76.29C69.6845 76.2664 69.7157 76.2399 69.7451 76.2105L71.645 74.3105C71.9448 74.0107 71.9448 73.5247 71.645 73.2249C71.3452 72.925 70.8591 72.925 70.5593 73.2249L69.0004 74.7838L67.4415 73.2249C67.1417 72.925 66.6556 72.925 66.3558 73.2249Z" fill="#77AEFF"/>
  <path fill-rule="evenodd" clip-rule="evenodd" d="M23.4214 65.1767C23.1858 65.4122 23.1858 65.7941 23.4214 66.0297L24.8049 67.4132V69.1008L23.3438 68.2572L22.8374 66.3675C22.7512 66.0457 22.4204 65.8547 22.0986 65.9409C21.7769 66.0272 21.5859 66.3579 21.6721 66.6797L22.1204 68.3527L20.4472 68.801C20.1254 68.8872 19.9345 69.2179 20.0207 69.5397C20.1069 69.8615 20.4377 70.0525 20.7595 69.9662L22.7987 69.4198C22.8301 69.4114 22.8604 69.4006 22.8892 69.3878L24.2938 70.1987L22.6494 71.1481L20.7601 70.6418C20.4383 70.5556 20.1076 70.7466 20.0214 71.0684C19.9351 71.3902 20.1261 71.7209 20.4479 71.8071L22.121 72.2554L21.6728 73.928C21.5866 74.2498 21.7775 74.5806 22.0993 74.6668C22.4211 74.753 22.7518 74.562 22.8381 74.2403L23.3845 72.201C23.3929 72.1696 23.3987 72.138 23.4019 72.1066L24.8049 71.2966V73.1949L23.4214 74.5784C23.1858 74.814 23.1858 75.1959 23.4214 75.4314C23.6569 75.667 24.0389 75.667 24.2744 75.4314L25.4993 74.2065L26.7242 75.4314C26.9598 75.667 27.3417 75.667 27.5773 75.4314C27.8128 75.1959 27.8128 74.814 27.5773 74.5784L26.0845 73.0856C26.0614 73.0625 26.0369 73.0417 26.0113 73.0231V71.1908L27.5975 72.1066C27.6008 72.138 27.6066 72.1696 27.615 72.201L28.1614 74.2403C28.2477 74.562 28.5784 74.753 28.9002 74.6668C29.222 74.5806 29.4129 74.2498 29.3267 73.928L28.8785 72.2554L30.5516 71.8071C30.8734 71.7209 31.0644 71.3902 30.9781 71.0684C30.8919 70.7466 30.5612 70.5556 30.2394 70.6418L28.3501 71.1481L26.7057 70.1987L28.1103 69.3878C28.1391 69.4006 28.1693 69.4114 28.2008 69.4198L30.24 69.9662C30.5618 70.0525 30.8926 69.8615 30.9788 69.5397C31.065 69.2179 30.874 68.8872 30.5523 68.801L28.8791 68.3527L29.3273 66.6797C29.4136 66.3579 29.2226 66.0272 28.9008 65.9409C28.579 65.8547 28.2483 66.0457 28.1621 66.3675L27.6557 68.2572L26.0113 69.2066V67.585C26.0369 67.5664 26.0614 67.5456 26.0845 67.5225L27.5773 66.0297C27.8128 65.7941 27.8128 65.4122 27.5773 65.1767C27.3417 64.9411 26.9598 64.9411 26.7242 65.1767L25.4993 66.4016L24.2744 65.1767C24.0389 64.9411 23.6569 64.9411 23.4214 65.1767Z" fill="#77AEFF"/>
  <path fill-rule="evenodd" clip-rule="evenodd" d="M41.4214 79.1767C41.1858 79.4122 41.1858 79.7941 41.4214 80.0297L42.8049 81.4132V83.1008L41.3438 82.2572L40.8374 80.3675C40.7512 80.0457 40.4204 79.8547 40.0986 79.9409C39.7769 80.0272 39.5859 80.3579 39.6721 80.6797L40.1204 82.3527L38.4472 82.801C38.1254 82.8872 37.9345 83.2179 38.0207 83.5397C38.1069 83.8615 38.4377 84.0525 38.7595 83.9662L40.7987 83.4198C40.8301 83.4114 40.8604 83.4006 40.8892 83.3878L42.2938 84.1987L40.6494 85.1481L38.7601 84.6418C38.4383 84.5556 38.1076 84.7466 38.0214 85.0684C37.9351 85.3902 38.1261 85.7209 38.4479 85.8071L40.121 86.2554L39.6728 87.928C39.5866 88.2498 39.7775 88.5806 40.0993 88.6668C40.4211 88.753 40.7518 88.562 40.8381 88.2403L41.3845 86.201C41.3929 86.1696 41.3987 86.138 41.4019 86.1066L42.8049 85.2966V87.1949L41.4214 88.5784C41.1858 88.814 41.1858 89.1959 41.4214 89.4314C41.6569 89.667 42.0389 89.667 42.2744 89.4314L43.4993 88.2065L44.7242 89.4314C44.9598 89.667 45.3417 89.667 45.5773 89.4314C45.8128 89.1959 45.8128 88.814 45.5773 88.5784L44.0845 87.0856C44.0614 87.0625 44.0369 87.0417 44.0113 87.0231V85.1908L45.5975 86.1066C45.6008 86.138 45.6066 86.1696 45.615 86.201L46.1614 88.2403C46.2477 88.562 46.5784 88.753 46.9002 88.6668C47.222 88.5806 47.4129 88.2498 47.3267 87.928L46.8785 86.2554L48.5516 85.8071C48.8734 85.7209 49.0644 85.3902 48.9781 85.0684C48.8919 84.7466 48.5612 84.5556 48.2394 84.6418L46.3501 85.1481L44.7057 84.1987L46.1103 83.3878C46.1391 83.4006 46.1693 83.4114 46.2008 83.4198L48.24 83.9662C48.5618 84.0525 48.8926 83.8615 48.9788 83.5397C49.065 83.2179 48.874 82.8872 48.5523 82.801L46.8791 82.3527L47.3273 80.6797C47.4136 80.3579 47.2226 80.0272 46.9008 79.9409C46.579 79.8547 46.2483 80.0457 46.1621 80.3675L45.6557 82.2572L44.0113 83.2066V81.585C44.0369 81.5664 44.0614 81.5456 44.0845 81.5225L45.5773 80.0297C45.8128 79.7941 45.8128 79.4122 45.5773 79.1767C45.3417 78.9411 44.9598 78.9411 44.7242 79.1767L43.4993 80.4016L42.2744 79.1767C42.0389 78.9411 41.6569 78.9411 41.4214 79.1767Z" fill="#77AEFF"/>
</svg>