<svg xmlns="http://www.w3.org/2000/svg" width="110" height="121" viewBox="0 0 110 121" fill="none">
  <path fill-rule="evenodd" clip-rule="evenodd" d="M31.5543 3.11105C34.145 14.7295 27.133 26.4301 15.5252 29.5404C11.9279 30.5043 8.30041 30.5331 4.90073 29.7757C4.97033 30.0878 5.04685 30.3998 5.1304 30.7116C8.32425 42.6312 20.5761 49.7049 32.4958 46.511C44.4154 43.3172 51.489 31.0653 48.2951 19.1457C46.0652 10.8233 39.4195 4.86333 31.5543 3.11105Z" fill="url(#paint0_linear_573_2635)"/>
  <path fill-rule="evenodd" clip-rule="evenodd" d="M18.1862 44.4343C22.27 40.3505 27.4353 38.0073 32.7601 37.4046C33.351 24.379 44.0983 14 57.2698 14C70.0187 14 80.4965 23.7236 81.6915 36.1591C93.9208 34.247 105.876 41.8301 109.152 54.0563C112.656 67.1364 104.901 80.5809 91.8284 84.0988L91.8024 84.106C90.5849 84.4322 89.3334 83.7096 89.0071 82.4921C88.6809 81.2746 89.4033 80.0232 90.6207 79.6969L90.6206 79.6967L90.6207 79.6967C101.274 76.8421 107.597 65.8915 104.742 55.2378C101.887 44.5842 90.9368 38.2619 80.2832 41.1165L80.2831 41.1165C79.1185 41.4286 77.9228 40.781 77.5355 39.6586C77.3478 39.327 77.2406 38.9438 77.2406 38.5356V38.5354H77.2401V38.5351C77.2401 27.5057 68.2989 18.5646 57.2695 18.5646C46.6501 18.5646 37.9667 26.8531 37.3356 37.3138C42.9855 37.727 48.5196 40.088 52.8467 44.3967C52.8597 44.4091 52.8726 44.4217 52.8854 44.4345C53.7767 45.3258 53.7767 46.7709 52.8854 47.6623C51.9941 48.5536 50.549 48.5536 49.6576 47.6623L49.657 47.6616L49.6567 47.6619C41.8577 39.8631 29.2131 39.8631 21.4142 47.662C13.6281 55.4482 13.6152 68.0639 21.3756 75.866C21.3889 75.8787 21.4021 75.8916 21.4152 75.9047C22.3065 76.796 22.3065 78.2411 21.4152 79.1324C20.5239 80.0238 19.0788 80.0238 18.1875 79.1324L18.1868 79.1318L18.1862 79.1325C8.60459 69.5508 8.60459 54.0159 18.1862 44.4343Z" fill="#213435"/>
  <path fill-rule="evenodd" clip-rule="evenodd" d="M59.8441 63.3533C59.3729 63.8245 59.3729 64.5883 59.8441 65.0594L62.6106 67.8259V71.2015L59.6876 69.5139L58.6751 65.735C58.5026 65.0915 57.8411 64.7095 57.1976 64.882C56.554 65.0544 56.1721 65.7159 56.3445 66.3595L57.2409 69.7047L53.8944 70.6014C53.2509 70.7738 52.869 71.4353 53.0414 72.0789C53.2138 72.7224 53.8753 73.1044 54.5189 72.9319L58.5974 71.8391C58.6603 71.8222 58.7207 71.8007 58.7784 71.775L61.5883 73.3973L58.2986 75.2966L54.5197 74.2841C53.8762 74.1116 53.2147 74.4936 53.0422 75.1371C52.8698 75.7807 53.2517 76.4422 53.8953 76.6146L57.2411 77.5111L56.3446 80.8569C56.1721 81.5004 56.554 82.1619 57.1976 82.3344C57.8412 82.5068 58.5027 82.1249 58.6751 81.4813L59.7679 77.4029C59.7848 77.34 59.7963 77.2769 59.8029 77.2141L62.6106 75.5931V79.3899L59.8441 82.1564C59.3729 82.6275 59.3729 83.3913 59.8441 83.8625C60.3152 84.3336 61.079 84.3336 61.5501 83.8625L63.9998 81.4128L66.4495 83.8625C66.9207 84.3336 67.6845 84.3336 68.1556 83.8625C68.6267 83.3913 68.6267 82.6275 68.1556 82.1564L65.17 79.1708C65.1237 79.1245 65.0747 79.0828 65.0233 79.0456V75.382L68.1954 77.2134C68.2019 77.2762 68.2135 77.3393 68.2303 77.4022L69.3232 81.4806C69.4956 82.1242 70.1571 82.5061 70.8007 82.3337C71.4442 82.1612 71.8261 81.4997 71.6537 80.8562L70.7574 77.511L74.1038 76.6143C74.7473 76.4418 75.1293 75.7803 74.9568 75.1368C74.7844 74.4932 74.1229 74.1113 73.4793 74.2837L69.7004 75.2963L66.4115 73.3974L69.2216 71.775C69.2793 71.8007 69.3397 71.8222 69.4026 71.8391L73.4811 72.9319C74.1246 73.1044 74.7861 72.7224 74.9586 72.0789C75.131 71.4353 74.7491 70.7738 74.1055 70.6014L70.7591 69.7047L71.6555 66.3595C71.8279 65.7159 71.446 65.0544 70.8024 64.882C70.1589 64.7095 69.4974 65.0915 69.3249 65.735L68.3124 69.5139L65.0233 71.4128V68.1702C65.0747 68.133 65.1237 68.0913 65.17 68.0451L68.1556 65.0594C68.6267 64.5883 68.6267 63.8245 68.1556 63.3533C67.6845 62.8822 66.9207 62.8822 66.4495 63.3533L63.9998 65.803L61.5501 63.3533C61.079 62.8822 60.3152 62.8822 59.8441 63.3533Z" fill="#77AEFF"/>
  <path fill-rule="evenodd" clip-rule="evenodd" d="M48.4226 92.1767C48.1871 92.4122 48.1871 92.7941 48.4226 93.0297L49.8062 94.4132V96.1006L48.3446 95.2567L47.8383 93.3672C47.7521 93.0454 47.4213 92.8545 47.0995 92.9407C46.7777 93.0269 46.5868 93.3577 46.673 93.6794L47.1211 95.3519L45.4477 95.8003C45.1259 95.8865 44.935 96.2173 45.0212 96.5391C45.1074 96.8608 45.4381 97.0518 45.7599 96.9656L47.7991 96.4192C47.8306 96.4107 47.8609 96.4 47.8897 96.3871L49.2941 97.1979L47.6489 98.1478L45.7595 97.6415C45.4377 97.5553 45.1069 97.7463 45.0207 98.0681C44.9345 98.3898 45.1254 98.7206 45.4472 98.8068L47.1203 99.2551L46.672 100.928C46.5858 101.25 46.7768 101.58 47.0986 101.667C47.4203 101.753 47.7511 101.562 47.8373 101.24L48.3837 99.201C48.3922 99.1695 48.3979 99.1379 48.4012 99.1065L49.8062 98.2953V100.195L48.4226 101.578C48.1871 101.814 48.1871 102.196 48.4226 102.431C48.6582 102.667 49.0401 102.667 49.2757 102.431L50.5005 101.206L51.7253 102.431C51.9609 102.667 52.3428 102.667 52.5783 102.431C52.8139 102.196 52.8139 101.814 52.5783 101.578L51.0855 100.085C51.0625 100.062 51.0381 100.042 51.0125 100.023V98.1904L52.5976 99.1056C52.6009 99.137 52.6067 99.1686 52.6151 99.2001L53.1615 101.239C53.2477 101.561 53.5785 101.752 53.9003 101.666C54.222 101.58 54.413 101.249 54.3268 100.927L53.8785 99.2542L55.5516 98.8059C55.8734 98.7197 56.0643 98.389 55.9781 98.0672C55.8919 97.7454 55.5611 97.5545 55.2394 97.6407L53.3499 98.1469L51.7067 97.1982L53.1115 96.3872C53.1403 96.4 53.1704 96.4108 53.2018 96.4192L55.241 96.9656C55.5628 97.0518 55.8935 96.8608 55.9798 96.5391C56.066 96.2173 55.875 95.8865 55.5533 95.8003L53.8802 95.352L54.3284 93.6794C54.4146 93.3577 54.2237 93.0269 53.9019 92.9407C53.5801 92.8545 53.2494 93.0454 53.1632 93.3672L52.6569 95.2567L51.0125 96.206V94.5848C51.0381 94.5663 51.0625 94.5455 51.0855 94.5225L52.5783 93.0297C52.8139 92.7941 52.8139 92.4122 52.5783 92.1767C52.3428 91.9411 51.9609 91.9411 51.7253 92.1767L50.5005 93.4015L49.2757 92.1767C49.0401 91.9411 48.6582 91.9411 48.4226 92.1767Z" fill="#77AEFF"/>
  <path fill-rule="evenodd" clip-rule="evenodd" d="M76.4898 84.1285C76.3185 84.2998 76.3185 84.5775 76.4898 84.7488L77.4963 85.7554V86.9834L76.4322 86.369L76.064 84.9947C76.0013 84.7607 75.7607 84.6218 75.5267 84.6845C75.2927 84.7472 75.1538 84.9877 75.2165 85.2217L75.5425 86.4382L74.3254 86.7643C74.0914 86.827 73.9525 87.0676 74.0153 87.3016C74.078 87.5356 74.3185 87.6745 74.5525 87.6118L76.0355 87.2144C76.0584 87.2083 76.0804 87.2004 76.1014 87.191L77.1225 87.7806L75.9264 88.4712L74.5523 88.103C74.3183 88.0403 74.0778 88.1792 74.0151 88.4132C73.9524 88.6472 74.0912 88.8878 74.3252 88.9505L75.5416 89.2764L75.2156 90.4931C75.1529 90.7271 75.2918 90.9676 75.5258 91.0303C75.7598 91.093 76.0004 90.9541 76.0631 90.7201L76.4604 89.2371C76.4666 89.2143 76.4708 89.1914 76.4731 89.1686L77.4961 88.578V89.9594L76.4896 90.966C76.3183 91.1373 76.3183 91.415 76.4896 91.5863C76.6609 91.7576 76.9386 91.7576 77.1099 91.5863L78.0007 90.6956L78.8914 91.5863C79.0628 91.7576 79.3405 91.7576 79.5118 91.5863C79.6831 91.415 79.6831 91.1373 79.5118 90.966L78.4262 89.8803C78.4095 89.8637 78.3919 89.8487 78.3734 89.8352V88.5026L79.5258 89.168C79.5282 89.1908 79.5324 89.2137 79.5385 89.2366L79.9359 90.7196C79.9986 90.9536 80.2391 91.0924 80.4731 91.0297C80.7071 90.967 80.846 90.7265 80.7833 90.4925L80.4574 89.2763L81.6744 88.9502C81.9084 88.8875 82.0473 88.647 81.9846 88.413C81.9219 88.179 81.6814 88.0401 81.4474 88.1028L80.0733 88.471L78.8774 87.7806L79.8988 87.1908C79.9197 87.2001 79.9416 87.2079 79.9643 87.214L81.4473 87.6114C81.6813 87.6741 81.9219 87.5352 81.9846 87.3012C82.0473 87.0672 81.9084 86.8267 81.6744 86.764L80.4581 86.4381L80.784 85.2217C80.8467 84.9877 80.7078 84.7472 80.4738 84.6845C80.2398 84.6218 79.9993 84.7607 79.9366 84.9947L79.5684 86.3685L78.3736 87.0584V85.8796C78.3921 85.8661 78.4098 85.8511 78.4264 85.8345L79.512 84.7488C79.6833 84.5775 79.6833 84.2998 79.512 84.1285C79.3407 83.9572 79.063 83.9572 78.8917 84.1285L78.0009 85.0192L77.1102 84.1285C76.9389 83.9572 76.6611 83.9572 76.4898 84.1285Z" fill="#77AEFF"/>
  <g filter="url(#filter0_d_573_2635)">
    <path d="M40 82.2857C40 85.4416 37.5376 88 34.5 88C31.4624 88 29 85.4416 29 82.2857C29 79.1298 34.5 73 34.5 73C34.5 73 40 79.1298 40 82.2857Z" fill="url(#paint1_linear_573_2635)"/>
  </g>
  <g filter="url(#filter1_d_573_2635)">
    <path d="M72 102.81C72 105.124 70.2091 107 68 107C65.7909 107 64 105.124 64 102.81C64 100.495 68 96 68 96C68 96 72 100.495 72 102.81Z" fill="url(#paint2_linear_573_2635)"/>
  </g>
  <defs>
    <filter id="filter0_d_573_2635" x="19" y="67" width="31" height="35" filterUnits="userSpaceOnUse" color-interpolation-filters="sRGB">
      <feFlood flood-opacity="0" result="BackgroundImageFix"/>
      <feColorMatrix in="SourceAlpha" type="matrix" values="0 0 0 0 0 0 0 0 0 0 0 0 0 0 0 0 0 0 127 0" result="hardAlpha"/>
      <feOffset dy="4"/>
      <feGaussianBlur stdDeviation="5"/>
      <feComposite in2="hardAlpha" operator="out"/>
      <feColorMatrix type="matrix" values="0 0 0 0 0.627451 0 0 0 0 0.776471 0 0 0 0 1 0 0 0 1 0"/>
      <feBlend mode="normal" in2="BackgroundImageFix" result="effect1_dropShadow_573_2635"/>
      <feBlend mode="normal" in="SourceGraphic" in2="effect1_dropShadow_573_2635" result="shape"/>
    </filter>
    <filter id="filter1_d_573_2635" x="54" y="90" width="28" height="31" filterUnits="userSpaceOnUse" color-interpolation-filters="sRGB">
      <feFlood flood-opacity="0" result="BackgroundImageFix"/>
      <feColorMatrix in="SourceAlpha" type="matrix" values="0 0 0 0 0 0 0 0 0 0 0 0 0 0 0 0 0 0 127 0" result="hardAlpha"/>
      <feOffset dy="4"/>
      <feGaussianBlur stdDeviation="5"/>
      <feComposite in2="hardAlpha" operator="out"/>
      <feColorMatrix type="matrix" values="0 0 0 0 0.627451 0 0 0 0 0.776471 0 0 0 0 1 0 0 0 1 0"/>
      <feBlend mode="normal" in2="BackgroundImageFix" result="effect1_dropShadow_573_2635"/>
      <feBlend mode="normal" in="SourceGraphic" in2="effect1_dropShadow_573_2635" result="shape"/>
    </filter>
    <linearGradient id="paint0_linear_573_2635" x1="49.5499" y1="23.8286" x2="6.38605" y2="35.3943" gradientUnits="userSpaceOnUse">
      <stop stop-color="#E1E1E1"/>
      <stop offset="1" stop-color="#646464"/>
    </linearGradient>
    <linearGradient id="paint1_linear_573_2635" x1="34.5" y1="73" x2="34.5" y2="88" gradientUnits="userSpaceOnUse">
      <stop stop-color="#9AC2FF"/>
      <stop offset="1" stop-color="#458FFF"/>
    </linearGradient>
    <linearGradient id="paint2_linear_573_2635" x1="68" y1="96" x2="68" y2="107" gradientUnits="userSpaceOnUse">
      <stop stop-color="#9AC2FF"/>
      <stop offset="1" stop-color="#458FFF"/>
    </linearGradient>
  </defs>
</svg>