<svg xmlns="http://www.w3.org/2000/svg" width="99" height="84" viewBox="0 0 99 84" fill="none">
  <path fill-rule="evenodd" clip-rule="evenodd" d="M7.18622 30.4343C11.27 26.3505 16.4353 24.0073 21.7601 23.4046C22.351 10.379 33.0983 0 46.2698 0C59.0187 0 69.4965 9.72357 70.6915 22.1591C82.9208 20.247 94.8755 27.8301 98.1515 40.0563C101.656 53.1364 93.9015 66.5809 80.8284 70.0988C82.0302 69.7619 82.7402 68.5195 82.4163 67.3107C82.09 66.0931 80.8385 65.3706 79.621 65.6968L79.6207 65.6969L79.6206 65.6967L79.6207 65.6967C90.2743 62.8421 96.5967 51.8915 93.742 41.2378C90.8874 30.5842 79.9368 24.2619 69.2832 27.1165L69.2831 27.1165C68.1185 27.4286 66.9228 26.781 66.5355 25.6586C66.3478 25.327 66.2406 24.9438 66.2406 24.5356V24.5354H66.2401V24.5351C66.2401 13.5057 57.2989 4.56455 46.2695 4.56455C35.6501 4.56455 26.9667 12.8531 26.3356 23.3138C31.9855 23.727 37.5196 26.088 41.8467 30.3967C41.8597 30.4091 41.8726 30.4217 41.8854 30.4345C42.7767 31.3258 42.7767 32.7709 41.8854 33.6623C40.9941 34.5536 39.549 34.5536 38.6576 33.6623L38.657 33.6616L38.6567 33.6619C30.8577 25.8631 18.2131 25.8631 10.4142 33.662C2.62806 41.4482 2.6152 54.0639 10.3756 61.866C10.3889 61.8787 10.4021 61.8916 10.4152 61.9047C11.3065 62.796 11.3065 64.2411 10.4152 65.1324C9.52388 66.0238 8.07877 66.0238 7.18746 65.1324L7.18685 65.1318L7.18622 65.1325C-2.39541 55.5508 -2.39541 40.0159 7.18622 30.4343ZM79.6207 65.6969C78.4033 66.0232 77.6809 67.2746 78.0071 68.4921C78.3333 69.7096 79.5847 70.432 80.8022 70.1059L79.6207 65.6969Z" fill="#213435"/>
  <path fill-rule="evenodd" clip-rule="evenodd" d="M21 60C19.8954 60 19 60.8954 19 62C19 63.1046 19.8954 64 21 64H52C53.1046 64 54 63.1046 54 62C54 60.8954 53.1046 60 52 60H21ZM21 80C19.8954 80 19 80.8954 19 82C19 83.1046 19.8954 84 21 84H52C53.1046 84 54 83.1046 54 82C54 80.8954 53.1046 80 52 80H21ZM38 72C38 70.8954 38.8954 70 40 70H71C72.1046 70 73 70.8954 73 72C73 73.1046 72.1046 74 71 74H40C38.8954 74 38 73.1046 38 72ZM60 60C58.8954 60 58 60.8954 58 62C58 63.1046 58.8954 64 60 64H71C72.1046 64 73 63.1046 73 62C73 60.8954 72.1046 60 71 60H60ZM58 82C58 80.8954 58.8954 80 60 80H71C72.1046 80 73 80.8954 73 82C73 83.1046 72.1046 84 71 84H60C58.8954 84 58 83.1046 58 82ZM21 70C19.8954 70 19 70.8954 19 72C19 73.1046 19.8954 74 21 74H32C33.1046 74 34 73.1046 34 72C34 70.8954 33.1046 70 32 70H21Z" fill="#B6C4DA"/>
</svg>