<svg xmlns="http://www.w3.org/2000/svg" width="89" height="84" viewBox="0 0 89 84" fill="none">
  <path fill-rule="evenodd" clip-rule="evenodd" d="M88.5 44.5476C72.2815 43.8594 59.344 30.4932 59.344 14.1053C59.344 9.02676 60.5865 4.23837 62.7841 0.0275612C62.3484 0.00907516 61.9103 -0.000263214 61.47 -0.000263214C44.6419 -0.000263214 31 13.6416 31 30.4698C31 47.2979 44.6419 60.9398 61.47 60.9398C73.2196 60.9398 83.4159 54.2895 88.5 44.5476Z" fill="url(#paint0_linear_171_4022)"/>
  <circle cx="59.5" cy="81.4999" r="2.5" fill="#B2B1B7"/>
  <circle cx="22" cy="14.9999" r="2" fill="#727075"/>
  <circle cx="79" cy="31.9999" r="2" fill="url(#paint1_linear_171_4022)"/>
  <circle cx="80.5" cy="15.4999" r="1.5" fill="#B1B1B1"/>
  <path fill-rule="evenodd" clip-rule="evenodd" d="M2 47C0.895431 47 0 47.8954 0 49C0 50.1046 0.89543 51 2 51H33C34.1046 51 35 50.1046 35 49C35 47.8954 34.1046 47 33 47H2ZM2 67C0.895431 67 0 67.8954 0 69C0 70.1046 0.89543 71 2 71H33C34.1046 71 35 70.1046 35 69C35 67.8954 34.1046 67 33 67H2ZM19 59C19 57.8954 19.8954 57 21 57H52C53.1046 57 54 57.8954 54 59C54 60.1046 53.1046 61 52 61H21C19.8954 61 19 60.1046 19 59ZM41 47C39.8954 47 39 47.8954 39 49C39 50.1046 39.8954 51 41 51H52C53.1046 51 54 50.1046 54 49C54 47.8954 53.1046 47 52 47H41ZM39 69C39 67.8954 39.8954 67 41 67H52C53.1046 67 54 67.8954 54 69C54 70.1046 53.1046 71 52 71H41C39.8954 71 39 70.1046 39 69ZM2 57C0.895431 57 0 57.8954 0 59C0 60.1046 0.89543 61 2 61H13C14.1046 61 15 60.1046 15 59C15 57.8954 14.1046 57 13 57H2Z" fill="#B6C4DA"/>
  <defs>
    <linearGradient id="paint0_linear_171_4022" x1="54.8587" y1="60.9398" x2="54.8587" y2="0.000957218" gradientUnits="userSpaceOnUse">
      <stop stop-color="#E1E1E1"/>
      <stop offset="1" stop-color="#646464"/>
    </linearGradient>
    <linearGradient id="paint1_linear_171_4022" x1="79" y1="29.9999" x2="79" y2="33.9999" gradientUnits="userSpaceOnUse">
      <stop stop-color="#E1E1E1"/>
      <stop stop-color="#E1E1E1"/>
      <stop offset="0.0001" stop-color="#E1E1E1"/>
      <stop offset="1" stop-color="#646464"/>
    </linearGradient>
  </defs>
</svg>