<?xml version="1.0" encoding="UTF-8" standalone="no"?>
<!-- Created with Inkscape (http://www.inkscape.org/) -->

<svg
   version="1.1"
   id="svg2"
   width="3742.6533"
   height="3788"
   viewBox="0 0 3742.6533 3788"
   sodipodi:docname="icone_folhas.eps"
   xmlns:inkscape="http://www.inkscape.org/namespaces/inkscape"
   xmlns:sodipodi="http://sodipodi.sourceforge.net/DTD/sodipodi-0.dtd"
   xmlns="http://www.w3.org/2000/svg"
   xmlns:svg="http://www.w3.org/2000/svg">
  <defs
     id="defs6" />
  <sodipodi:namedview
     id="namedview4"
     pagecolor="#ffffff"
     bordercolor="#000000"
     borderopacity="0.25"
     inkscape:showpageshadow="2"
     inkscape:pageopacity="0.0"
     inkscape:pagecheckerboard="0"
     inkscape:deskcolor="#d1d1d1" />
  <g
     id="g8"
     inkscape:groupmode="layer"
     inkscape:label="ink_ext_XXXXXX"
     transform="matrix(1.3333333,0,0,-1.3333333,0,3788)">
    <g
       id="g10"
       transform="scale(0.1)">
      <path
         d="m 4395.27,9070.3 c 319.43,1635.9 1077.72,3167.1 2069.48,4506.7 991.76,1339.6 2243.77,2493.2 3546.65,3532.7 C 8310.26,16180.2 6604.5,15187.8 5280.78,13771.5 4199.64,12614.8 3382.97,11125.3 3245.63,9528.3 c -144.79,-1683.6 566.16,-3466 1666.79,-4724.9 11.04,-12.6 22.07,-25.2 33.11,-37.8 857.4,-980.7 1903.46,-1675.6 2983.37,-2371.7 1061.5,-684.1 2269,-1132.1 3511.4,-1348.2 2139.6,-372.098 4332.2,-121.7 6295.5,800.2 527.2,247.6 1052.3,511.4 1510,871.7 222.1,174.8 401.2,381.5 553.2,620.2 25.9,40.7 51.7,83 89.9,112.4 41.2,31.9 93.1,45.9 143.5,59.1 98.5,25.9 187,27.3 286.1,42.4 550,83.7 1094,205.9 1627.1,364.6 1066.3,317.5 2089.1,781.4 3028.5,1377.6 -81.1,-95.3 -142,-195.6 -212.4,-294.5 C 23725.2,3542.9 22058.3,2378.5 20487.8,1565.1 18858.3,721.203 17063.7,190.902 15233.3,43.1016 11436.1,-263.398 7534.2,1077.8 4727.95,3654.1 c -1408.48,1293.1 -2573,2946 -2896.26,4830.5 -43.35,252.7 -71.29,507.9 -86.02,763.8 -204.86,3558.5 1361.52,7047.9 4462.89,8903.6 2063,1234.3 4563.94,1662.6 6948.14,1353.8 -655.3,-387.2 -1143.5,-1019.6 -1515.5,-1683.6 -372,-664.1 -627.7,-1385.5 -892.5,-2099 C 10176.4,14181.3 9538.33,12632.5 8498.19,11358.5 7458.04,10084.6 5949.56,9104.1 4305.66,9055.2"
         style="fill:#337637;fill-opacity:1;fill-rule:nonzero;stroke:none"
         id="path12" />
      <path
         d="m 23169.9,8339.5 c -1581.2,-527.2 -3287.4,-620.9 -4941.6,-417 -1654.3,204 -3274.7,726 -4820.9,1348.4 1646.5,-1023.2 3350,-2019.5 5234.4,-2474.7 1539,-371.7 3237.6,-349.4 4695.3,317.1 1536.8,702.7 2738.4,2198.9 3292.4,3776.6 5.6,15.8 11.1,31.6 16.7,47.4 431.6,1229.1 521.6,2481.7 595.9,3764.4 73,1260.7 -131.4,2532.3 -554.8,3720.1 -729.3,2045.6 -2026.4,3831 -3795.4,5086.1 -475,337.1 -963.1,664.4 -1502,885.5 -261.5,107.3 -529.5,161.3 -812.2,176.2 -48.2,2.5 -97.6,4.2 -142.1,22.9 -48,20.2 -85.7,58.5 -122.1,95.8 -71,73 -115.8,149.4 -177.7,228.2 -343.5,437.6 -717.7,851 -1118.3,1236.9 -801.1,771.9 -1708.4,1433.9 -2689.8,1958.1 122.9,-23.7 240.1,-27.3 360.9,-39.9 1778,-185.3 3612.1,-1063.2 5093.1,-2029.9 1536.8,-1003 2881.7,-2304.1 3911.3,-3824.7 2135.9,-3154.4 2889.1,-7211.1 2027.7,-10922 -432.3,-1862.5 -1297.8,-3689.8 -2779.1,-4898.8 -198.6,-162.1 -407,-312 -622.5,-450.8 -2996.8,-1929.9 -6805.2,-2284 -9947,-497.8 -2090,1188.2 -3693.8,3154.4 -4598.6,5381.7 659.7,-379.7 1450.4,-493.5 2211.5,-490.4 761.2,3.1 1515,135.6 2266.5,256.3 1623.8,260.7 3286.1,467.7 4907,189.4 1620.9,-278.4 3216.9,-1108.8 4068.7,-2515.7"
         style="fill:#53bb4e;fill-opacity:1;fill-rule:nonzero;stroke:none"
         id="path14" />
      <path
         d="m 14401.4,25499.4 c 1273.1,-1075.8 2241.1,-2483.9 2927.9,-4002.5 686.9,-1518.7 1084.6,-3174 1357.8,-4818.2 16.8,1938.5 -19.1,3911.6 -611.2,5757.5 -483.6,1507.6 -1386.7,2946.4 -2714.6,3844.2 -1399.8,946.5 -3302.8,1193.8 -4938.3,845.7 -16.4,-3.5 -32.8,-7 -49.2,-10.5 C 9099.68,26844.5 7983.23,26269.4 6849.35,25665.3 5734.8,25071.4 4755.4,24235 3961.57,23255.3 2594.4,21567.9 1745.08,19531 1594,17367.3 c -40.57,-581.1 -66.02,-1168.2 25.7,-1743.4 44.51,-279.1 137.85,-536.2 272.28,-785.2 22.9,-42.5 47.26,-85.6 54.41,-133.3 7.72,-51.5 -5.35,-103.6 -18.31,-154.1 -25.35,-98.7 -67.22,-176.6 -102.35,-270.6 -194.79,-521 -353.05,-1055.7 -474.1,-1598.6 C 1109.52,11596.3 1016.51,10477 1079.68,9366.2 1035.95,9483.5 977.984,9585.4 925.863,9695.1 158.711,11309.8 -46.2969,13332.8 8.28516,15100.6 64.918,16934.8 475.891,18760.4 1238.4,20430.9 c 1581.82,3465.7 4653.71,6220.2 8270.68,7416.1 1815.42,600.3 3826.12,812.2 5629.42,176.6 241.8,-85.2 478.3,-185.1 709,-296.9 3207.6,-1554.3 5492.1,-4622 5602.2,-8234.4 73.2,-2403 -771,-4795.8 -2201.9,-6727.7 -19.1,760.9 -333.5,1495.4 -732.3,2143.7 -398.8,648.3 -904.3,1223 -1398.5,1801.9 -1067.8,1250.8 -2109.7,2562.4 -2715.7,4091.4 -605.9,1528.9 -727.5,3323.9 30.5,4783.5"
         style="fill:#8fd469;fill-opacity:1;fill-rule:nonzero;stroke:none"
         id="path16" />
    </g>
  </g>
</svg>
